<?xml version="1.0" standalone="no"?>
<!DOCTYPE svg PUBLIC "-//W3C//DTD SVG 20010904//EN"
 "http://www.w3.org/TR/2001/REC-SVG-20010904/DTD/svg10.dtd">
<svg version="1.0" xmlns="http://www.w3.org/2000/svg"
 width="256.000000pt" height="256.000000pt" viewBox="0 0 256.000000 256.000000"
 preserveAspectRatio="xMidYMid meet">
<metadata>
Created by potrace 1.11, written by Peter Selinger 2001-2013
</metadata>
<g transform="translate(0.000000,256.000000) scale(0.100000,-0.100000)"
fill="#000000" stroke="none">
<path d="M17 2547 c-16 -11 -17 -79 -15 -1032 3 -1014 3 -1020 24 -1060 12
-22 42 -55 68 -74 122 -87 293 -19 324 129 6 26 10 357 9 786 0 695 1 742 18
771 51 87 179 83 221 -6 15 -31 17 -111 16 -825 0 -435 -1 -795 -1 -801 -1 -6
-39 -9 -98 -8 -118 2 -139 -1 -153 -27 -8 -15 -6 -24 10 -40 18 -18 33 -20
130 -20 107 0 110 -1 111 -22 0 -13 1 -85 2 -161 2 -110 5 -140 17 -147 21
-14 1815 -13 1841 0 19 10 19 32 19 1019 0 742 -3 1017 -12 1042 -19 55 -59
101 -113 125 l-50 24 -772 0 c-691 0 -773 -1 -787 -16 -18 -18 -20 -32 -6 -54
8 -13 107 -15 783 -16 l775 -1 35 -22 c19 -11 41 -36 48 -53 11 -26 13 -219
14 -1000 0 -532 -2 -968 -5 -969 -3 -1 -386 -2 -853 -3 l-847 -1 0 445 c-1
1329 -4 1533 -24 1570 -82 154 -298 155 -378 2 l-28 -53 0 -759 c0 -418 -4
-770 -9 -782 -29 -75 -138 -103 -198 -51 -49 43 -47 6 -47 1031 -1 529 1 968
4 975 4 9 197 12 850 12 l845 0 5 -74 c4 -61 9 -76 27 -88 19 -13 24 -12 43 7
19 19 20 30 18 121 -3 75 -7 102 -18 109 -9 6 -377 10 -921 10 -709 0 -909 -3
-922 -13z"/>
<path d="M1052 1703 c-7 -3 -17 -14 -23 -25 -8 -15 -7 -24 7 -39 16 -18 34
-19 281 -19 272 0 303 4 303 40 0 45 -13 47 -292 47 -145 0 -269 -2 -276 -4z"/>
<path d="M1727 1699 c-20 -11 -23 -49 -5 -67 8 -8 57 -12 154 -12 118 0 145 3
159 16 14 14 13 47 -2 64 -9 9 -289 8 -306 -1z"/>
<path d="M1044 1442 c-19 -13 -23 -40 -9 -58 13 -18 41 -19 584 -19 525 0 572
1 587 17 15 14 16 22 6 43 l-12 25 -572 0 c-315 0 -578 -4 -584 -8z"/>
<path d="M2006 1038 c-18 -18 -46 -41 -60 -51 -134 -92 -58 -301 112 -306 13
-1 34 -12 47 -26 47 -46 23 -125 -41 -139 -43 -9 -76 13 -95 64 -19 52 -41 70
-66 54 -13 -8 -18 -24 -17 -57 0 -55 39 -112 90 -133 19 -8 34 -21 34 -29 0
-17 38 -35 57 -28 7 3 15 14 18 24 4 11 24 28 45 39 92 47 115 179 46 258 -21
24 -88 63 -103 61 -31 -5 -59 5 -83 30 -23 22 -28 35 -25 61 14 109 149 101
170 -9 8 -41 42 -53 70 -24 37 36 -9 139 -76 174 -21 10 -39 23 -39 28 0 12
-29 41 -40 41 -5 0 -25 -15 -44 -32z"/>
<path d="M1038 1008 c-10 -10 -18 -21 -18 -25 1 -33 64 -58 101 -39 34 16 38
62 7 72 -39 14 -71 11 -90 -8z"/>
<path d="M1260 1018 c-24 -9 -27 -50 -5 -68 11 -9 62 -12 175 -12 165 0 190 6
190 41 -1 42 -12 45 -179 46 -88 0 -169 -3 -181 -7z"/>
<path d="M1043 755 c-56 -39 26 -98 89 -64 20 11 24 49 6 67 -17 17 -69 15
-95 -3z"/>
<path d="M1258 759 c-21 -12 -24 -54 -5 -66 6 -4 104 -9 217 -9 238 -2 254 3
226 68 -7 15 -31 17 -214 17 -126 0 -214 -3 -224 -10z"/>
<path d="M1257 499 c-24 -19 -17 -64 10 -71 10 -2 98 -3 197 -3 157 1 180 3
191 18 17 24 7 56 -19 63 -12 3 -98 6 -191 7 -141 2 -172 -1 -188 -14z"/>
<path d="M1032 493 c-12 -23 2 -63 23 -64 65 -6 84 0 91 26 9 37 -11 55 -62
55 -31 0 -46 -5 -52 -17z"/>
</g>
</svg>
